<svg version="1.1" xmlns="http://www.w3.org/2000/svg" xmlns:xlink="http://www.w3.org/1999/xlink" width="31.35301" height="31.02829" viewBox="0,0,31.35301,31.02829"><defs><linearGradient x1="225.32354" y1="180.00006" x2="254.67655" y2="180.00006" gradientUnits="userSpaceOnUse" id="color-1"><stop offset="0" stop-color="#9966ff"/><stop offset="1" stop-color="#c9adff"/></linearGradient></defs><g transform="translate(-224.32354,-164.48591)"><g data-paper-data="{&quot;isPaintingLayer&quot;:true}" fill-rule="nonzero" stroke-linejoin="miter" stroke-miterlimit="10" stroke-dasharray="" stroke-dashoffset="0" style="mix-blend-mode: normal"><g><path d="M225.32354,194.51421v-29.02829h29.35301v29.02829z" fill="url(#color-1)" stroke="#000000" stroke-width="2" stroke-linecap="butt"/><path d="M230.43754,173.37506c0,-1.38071 1.11929,-2.5 2.5,-2.5c1.38071,0 2.5,1.11929 2.5,2.5c0,1.38071 -1.11929,2.5 -2.5,2.5c-1.38071,0 -2.5,-1.11929 -2.5,-2.5z" fill="#000000" stroke="none" stroke-width="0.5" stroke-linecap="butt"/><path d="M243.68754,173.50006c0,-1.38071 1.11929,-2.5 2.5,-2.5c1.38071,0 2.5,1.11929 2.5,2.5c0,1.38071 -1.11929,2.5 -2.5,2.5c-1.38071,0 -2.5,-1.11929 -2.5,-2.5z" fill="#000000" stroke="none" stroke-width="0.5" stroke-linecap="butt"/><path d="M245.81254,183.00006c0,0 1.01802,6.55531 -5.62538,6.43594c-7.40549,-0.13307 -6.12462,-6.43594 -6.12462,-6.43594" fill="none" stroke="#000000" stroke-width="2" stroke-linecap="round"/></g></g></g></svg>